<svg id="Layer_1" data-name="Layer 1" xmlns="http://www.w3.org/2000/svg" viewBox="0 0 25.09 24.61"><defs><style>.cls-1{fill:#262626;}</style></defs><title>g+</title><polygon class="cls-1" points="20.1 8.65 21.76 8.65 21.76 5.32 25.09 5.32 25.09 3.66 21.76 3.66 21.76 0.33 20.1 0.33 20.1 3.66 16.77 3.66 16.77 5.32 20.1 5.32 20.1 8.65"/><path class="cls-1" d="M8.45,28.3c5.73,0,8-3,8-5.53,0-2-.76-3.36-3.06-5.08s-2.9-2.66-.67-4.38a4.88,4.88,0,0,0,2.13-3.85,4.56,4.56,0,0,0-2-4.08h1.89L16.32,3.7H9.11c-4.5,0-6.71,2.7-6.71,5.67s2.08,5.42,6.14,5.42a2.5,2.5,0,0,0,.65,3.29c-6.94,0-8.42,3-8.42,5.39C0.77,26.5,4.27,28.3,8.45,28.3Zm-3.34-19C4.78,6.76,6.08,4.81,8,4.87S11.63,7,12,9.57s-0.78,4.19-2.73,4.14S5.45,11.87,5.11,9.32Zm3.73,9.62c3.21,0,5.13,2,5.13,4.1S12.18,27,8.48,27c-2.89,0-5-1.83-5-4S5.94,18.9,8.84,18.93Z" transform="translate(-0.77 -3.7)"/></svg>