<svg id="Calque_2" data-name="Calque 2" xmlns="http://www.w3.org/2000/svg" viewBox="0 0 12.71 12.65"><title>insta</title><path d="M13.94,6.21H10.41s0.43,2-.62,3.1a3.09,3.09,0,0,1-4.27,0A3.07,3.07,0,0,1,5,6.25H1.29s0,3,0,4.86S3.51,13.74,4,13.74h7.24a2.79,2.79,0,0,0,2.71-2.64V6.21Z" transform="translate(-1.29 -1.09)"/><path d="M7.72,4.31a2.53,2.53,0,0,1,2.13.89H14V3.92a2.93,2.93,0,0,0-2.66-2.83H4.7V4.33l-0.64,0V1.12a2.88,2.88,0,0,0-.71.23v3H2.63V1.79c-0.83.37-1.28,2.06-1.28,2.06V5.2H5.64A2.39,2.39,0,0,1,7.72,4.31Zm2.75-1.14A0.49,0.49,0,0,1,11,2.68h0.87a0.46,0.46,0,0,1,.46.49v1a0.35,0.35,0,0,1-.44.32h-1a0.39,0.39,0,0,1-.41-0.32v-1Z" transform="translate(-1.29 -1.09)"/><circle cx="6.35" cy="6.24" r="1.72"/></svg>