<svg xmlns="http://www.w3.org/2000/svg" width="24" height="24" viewBox="0 0 24 24">
  <defs>
    <style>
      .cls-1 {
        fill: #cb9b2b;
        fill-rule: evenodd;
      }
    </style>
  </defs>
  <path id="Label" class="cls-1" d="M63.561,1041.69l-11.872,11.87a1.5,1.5,0,0,1-2.121,0l-9.129-9.13a1.492,1.492,0,0,1-.439-1.06,1.509,1.509,0,0,1,.439-1.06l11.872-11.87a1.506,1.506,0,0,1,1.061-.44H62.5a1.5,1.5,0,0,1,1.5,1.5v9.13A1.493,1.493,0,0,1,63.561,1041.69Zm-21,1.68,8.068,8.07,1.611-1.61-8.068-8.07Zm19.19-11.12H53.682l-7.921,7.92,8.068,8.07,7.92-7.92v-8.07Zm-4.5,3a1.5,1.5,0,1,1-1.5,1.5A1.5,1.5,0,0,1,57.25,1035.25Z" transform="translate(-40 -1030)"/>
</svg>
