<svg xmlns="http://www.w3.org/2000/svg" width="20" height="28" viewBox="0 0 20 28">
  <defs>
    <style>
      .cls-1 {
        fill: #cb9b2b;
        fill-rule: evenodd;
      }
    </style>
  </defs>
  <path id="Pin" class="cls-1" d="M66.4,501.191L59.751,512a2.032,2.032,0,0,1-3.5,0L49.6,501.191A10.83,10.83,0,0,1,48,495.5a10.012,10.012,0,1,1,20,0A10.829,10.829,0,0,1,66.4,501.191ZM58,487.625a7.7,7.7,0,0,0-7.5,7.874,8.138,8.138,0,0,0,1.2,4.269L58,510.007l6.3-10.24a8.135,8.135,0,0,0,1.2-4.268A7.7,7.7,0,0,0,58,487.625Zm0,12.251a4.38,4.38,0,1,1,4.167-4.377A4.276,4.276,0,0,1,58,499.876Zm0-6.127a1.753,1.753,0,1,0,1.667,1.75A1.712,1.712,0,0,0,58,493.749Z" transform="translate(-48 -485)"/>
</svg>
