<svg xmlns="http://www.w3.org/2000/svg" width="41.624" height="41.438" viewBox="0 0 41.624 41.438">
  <defs>
    <style>
      .cls-1 {
        fill: #a9a9a9;
        fill-rule: evenodd;
      }
    </style>
  </defs>
  <path id="Search" class="cls-1" d="M597.453,32.763A15.574,15.574,0,0,0,581.837,48.3a15.412,15.412,0,0,0,3.292,9.523L572,70.885a1.931,1.931,0,0,0,0,2.744,1.958,1.958,0,0,0,2.761,0l13.13-13.066A15.563,15.563,0,1,0,597.453,32.763Zm0,27.19A11.655,11.655,0,1,1,609.165,48.3,11.7,11.7,0,0,1,597.453,59.953Z" transform="translate(-571.438 -32.75)"/>
</svg>
