<svg id="Calque_1" data-name="Calque 1" xmlns="http://www.w3.org/2000/svg" viewBox="0 0 21.02 17.09"><defs><style>.cls-1{fill:#262626;}</style></defs><title>twitter</title><path class="cls-1" d="M22.89,5.41a7.79,7.79,0,0,1-2,2.11V7.89a12.21,12.21,0,0,1-5.57,10.24A12.16,12.16,0,0,1,8.67,20a12.1,12.1,0,0,1-5.61-1.35,7.3,7.3,0,0,1-1-.56,0.4,0.4,0,0,1-.17-0.3,0.37,0.37,0,0,1,.36-0.35l0.49,0,0.51,0a7.84,7.84,0,0,0,4.2-1.18,4.52,4.52,0,0,1-3.27-3,0.55,0.55,0,0,1,0-.12,0.35,0.35,0,0,1,.34-0.34l0.15,0,0.13,0A4.51,4.51,0,0,1,2.63,9.06a0.42,0.42,0,0,1,.43-0.4,1.2,1.2,0,0,1,.4.12,1.72,1.72,0,0,0,.34.15,4.28,4.28,0,0,1-1-2.84,4.35,4.35,0,0,1,.62-2.26,0.32,0.32,0,0,1,.28-0.18A0.37,0.37,0,0,1,4,3.8c0.57,0.62,1,1,1.23,1.27a11.46,11.46,0,0,0,6.65,2.87,2.42,2.42,0,0,1,0-.55,4.52,4.52,0,0,1,4.53-4.49A4.43,4.43,0,0,1,19.5,4.18a8.74,8.74,0,0,0,2.34-.92A0.35,0.35,0,0,1,22,3.21a0.36,0.36,0,0,1,.36.36,4.09,4.09,0,0,1-.89,1.66l0.82-.3a0.9,0.9,0,0,1,.27-0.07A0.37,0.37,0,0,1,22.89,5.41Z" transform="translate(-1.92 -2.91)"/></svg>