<svg id="Layer_1" data-name="Layer 1" xmlns="http://www.w3.org/2000/svg" viewBox="0 0 20.33 23.46"><defs><style>.cls-1{fill:#262626;}</style></defs><title>YT</title><path class="cls-1" d="M15,10.14a2,2,0,0,0,1.44-.83V10h1.24V3.37H16.4V8.44a1.3,1.3,0,0,1-.73.5c-0.27,0-.33-0.18-0.33-0.45V3.37H14.1V9A1,1,0,0,0,15,10.14Z" transform="translate(-1.84 -1)"/><path class="cls-1" d="M9.44,8.38a1.61,1.61,0,0,0,1.82,1.79A1.7,1.7,0,0,0,13,8.38V5.11a1.74,1.74,0,0,0-1.78-1.79A1.71,1.71,0,0,0,9.44,5.11V8.38Zm1.28-3.16a0.54,0.54,0,1,1,1.06,0V8.33a0.55,0.55,0,0,1-.52.63,0.56,0.56,0,0,1-.54-0.63V5.22Z" transform="translate(-1.84 -1)"/><polygon class="cls-1" points="4.64 9.05 6.04 9.05 6.04 5.38 7.67 0 6.25 0 5.35 3.62 4.39 0 2.98 0 4.64 5.38 4.64 9.05"/><path class="cls-1" d="M19.32,11.57H4.68a2.85,2.85,0,0,0-2.85,2.85v7.19a2.85,2.85,0,0,0,2.85,2.85H19.32a2.85,2.85,0,0,0,2.85-2.85V14.41A2.85,2.85,0,0,0,19.32,11.57ZM6.63,22.32H5.3V15H3.92V13.7H8V15H6.63v7.37Zm4.74,0H10.19v-0.7a2.62,2.62,0,0,1-.68.59C8.87,22.58,8,22.57,8,21.28V16H9.18v4.87c0,0.26.06,0.43,0.31,0.43a1.23,1.23,0,0,0,.7-0.48V16h1.18v6.36ZM15.92,21a1.15,1.15,0,0,1-1.08,1.4,1.35,1.35,0,0,1-1.12-.57v0.49H12.52V13.7h1.19v2.78a1.42,1.42,0,0,1,1.05-.59c0.87,0,1.15.73,1.15,1.59V21Zm4.37-1.71H18v1.2c0,0.48,0,.89.52,0.89s0.53-.34.53-0.89V20h1.22v0.48c0,1.22-.53,2-1.77,2a1.71,1.71,0,0,1-1.71-2V17.67a1.75,1.75,0,0,1,1.8-1.87,1.61,1.61,0,0,1,1.68,1.87v1.62Z" transform="translate(-1.84 -1)"/><path class="cls-1" d="M18.56,16.92c-0.44,0-.53.31-0.53,0.75V18.3h1V17.66C19.08,17.23,19,16.92,18.56,16.92Z" transform="translate(-1.84 -1)"/><path class="cls-1" d="M14,17a0.87,0.87,0,0,0-.24.19v4a1,1,0,0,0,.28.22,0.5,0.5,0,0,0,.6-0.07,0.72,0.72,0,0,0,.1-0.44V17.55a0.8,0.8,0,0,0-.13-0.49A0.49,0.49,0,0,0,14,17Z" transform="translate(-1.84 -1)"/></svg>